<svg width="200" height="133" viewBox="0 0 200 133" fill="none" xmlns="http://www.w3.org/2000/svg">
<g clip-path="url(#clip0_244_206)">
<rect width="200" height="133" rx="18" fill="#F7CE45"/>
<mask id="mask0_244_206" style="mask-type:luminance" maskUnits="userSpaceOnUse" x="0" y="0" width="200" height="133">
<path d="M200 132.663V0L0 0V132.663H200Z" fill="white"/>
</mask>
<g mask="url(#mask0_244_206)">
<path d="M162.58 86.6206L162.081 86.6196L0.5 86.4351V55.6108H160.306V52.4731C160.306 50.8359 161.633 49.5083 163.272 49.5083H181.485L181.537 49.0649C182.175 43.5319 182.211 34.6422 180.259 25.4741C178.466 17.0548 174.982 8.35665 168.699 1.81787C173.624 3.92314 180.36 8.29509 186.285 14.6997C193.047 22.0088 198.721 31.9263 199.469 44.0815L199.5 44.6382V85.8618C199.5 87.597 199.107 89.2642 197.981 90.3306L197.746 90.5356C196.725 91.355 195.417 92.0132 193.933 92.0132H193.433V99.0552C193.433 100.779 194.101 102.357 194.972 103.802C195.834 105.235 196.949 106.616 197.854 107.878C198.794 109.191 199.5 111.007 199.5 113.459V128.698C199.5 130.335 198.173 131.661 196.533 131.661H165.547C163.908 131.661 162.58 130.333 162.58 128.696V110.506C162.58 109.109 163.714 107.975 165.114 107.975C167.065 107.975 168.647 106.394 168.647 104.443V95.5454C168.647 93.5948 167.065 92.0133 165.114 92.0132C163.714 92.0132 162.58 90.8798 162.58 89.4819V86.6206Z" fill="black" stroke="black"/>
<path d="M45.1431 59.8384V77.8071C45.1432 78.9282 45.5888 79.8604 46.3433 80.5054C47.0903 81.1438 48.1082 81.4751 49.2241 81.4751C51.2972 81.475 53.2209 80.1131 53.2212 77.8071V59.8384H60.1323V77.8071C60.1322 80.8004 58.902 83.0624 56.9468 84.5884C54.978 86.1249 52.2427 86.937 49.2241 86.937C46.1626 86.937 43.4168 86.1243 41.4487 84.5884C39.4945 83.0632 38.274 80.8017 38.2739 77.8071V59.8384H45.1431ZM110.426 59.7964C118.548 59.7965 124.582 65.3536 124.583 73.2622C124.583 81.1164 118.187 86.6039 110.426 86.604H99.5171V59.7964H110.426ZM25.8306 59.8384C30.2417 59.8384 32.9888 62.93 32.9507 66.2114V66.2173C32.9506 68.0826 32.0019 70.1377 29.7642 71.5923L28.7739 72.2358L29.9243 72.4995C33.1095 73.2296 34.8237 75.9913 34.8237 79.0161C34.8236 80.9204 34.1371 82.8145 32.7817 84.23C31.4324 85.6391 29.3916 86.604 26.6216 86.604H10.5503V59.8384H25.8306ZM149.041 59.8384V65.8003H135.134V70.2192H147.5V75.5972H135.134V80.7661H149.25V86.604H128.306V59.8384H149.041ZM83.4536 59.7964V80.7661H96.4448V86.604H76.5845V59.7964H83.4536ZM71.6216 59.7964V86.604H64.7515V59.7964H71.6216ZM17.4194 80.7661H25.2896C26.7321 80.7661 27.8296 79.666 27.8296 78.2231C27.8294 76.8155 26.7252 75.7222 25.2896 75.7222H17.4194V80.7661ZM106.387 80.7661H109.843C114.122 80.766 117.713 77.6588 117.713 73.2622C117.713 68.8254 114.289 65.8004 109.843 65.8003H106.387V80.7661ZM17.4194 70.3022H23.7905C24.9716 70.3022 26.1646 69.3778 26.1646 68.0513C26.1645 66.7163 25.0039 65.8423 23.7905 65.8423H17.4194V70.3022Z" fill="#F7CE45" stroke="black"/>
</g>
</g>
<defs>
<clipPath id="clip0_244_206">
<rect width="200" height="133" rx="18" fill="white"/>
</clipPath>
</defs>
</svg>
