<svg width="20" height="20" viewBox="0 0 20 20" fill="none" xmlns="http://www.w3.org/2000/svg">
<path d="M10.72 0.0297853C9.28946 -0.0743494 7.85327 0.130752 6.50906 0.631146C5.16486 1.13154 3.94415 1.91549 2.92993 2.92972C1.91571 3.94394 1.13175 5.16464 0.63136 6.50885C0.130965 7.85306 -0.0741358 9.28925 0.029999 10.7198C0.389999 16.0098 5.01 19.9998 10.31 19.9998H14C14.55 19.9998 15 19.5498 15 18.9998C15 18.4498 14.55 17.9998 14 17.9998H10.33C6.6 17.9998 3.18 15.5798 2.25 11.9698C0.759999 6.16979 6.16 0.759786 11.96 2.25979C15.58 3.17979 18 6.59979 18 10.3298V11.4298C18 12.2198 17.29 12.9998 16.5 12.9998C15.71 12.9998 15 12.2198 15 11.4298V10.1798C15 7.66979 13.22 5.40979 10.74 5.05979C9.95096 4.94246 9.1453 5.01532 8.39011 5.2723C7.63492 5.52929 6.95205 5.96295 6.39834 6.5372C5.84463 7.11145 5.43612 7.80967 5.2068 8.57372C4.97749 9.33776 4.93402 10.1455 5.08 10.9298C5.25539 11.8748 5.69962 12.7491 6.35944 13.4479C7.01926 14.1468 7.86665 14.6405 8.8 14.8698C10.64 15.2998 12.39 14.7098 13.54 13.5398C14.43 14.7598 16.21 15.3998 17.84 14.7498C19.18 14.2198 20 12.8398 20 11.3998V10.3198C20 5.00979 16.01 0.389785 10.72 0.0297853ZM10 12.9998C8.34 12.9998 7 11.6598 7 9.99979C7 8.33979 8.34 6.99979 10 6.99979C11.66 6.99979 13 8.33979 13 9.99979C13 11.6598 11.66 12.9998 10 12.9998Z" fill="white"/>
</svg>
