<svg width="12" height="20" viewBox="0 0 12 20" fill="none" xmlns="http://www.w3.org/2000/svg">
<path d="M1.8 0.399902C1.32261 0.399902 0.864773 0.589545 0.527208 0.92711C0.189642 1.26468 0 1.72251 0 2.1999V17.7999C0 18.2773 0.189642 18.7351 0.527208 19.0727C0.864773 19.4103 1.32261 19.5999 1.8 19.5999H10.2C10.6774 19.5999 11.1352 19.4103 11.4728 19.0727C11.8104 18.7351 12 18.2773 12 17.7999V2.1999C12 1.72251 11.8104 1.26468 11.4728 0.92711C11.1352 0.589545 10.6774 0.399902 10.2 0.399902H1.8ZM4.8 14.7999H7.2C7.35913 14.7999 7.51174 14.8631 7.62426 14.9756C7.73679 15.0882 7.8 15.2408 7.8 15.3999C7.8 15.559 7.73679 15.7116 7.62426 15.8242C7.51174 15.9367 7.35913 15.9999 7.2 15.9999H4.8C4.64087 15.9999 4.48826 15.9367 4.37574 15.8242C4.26321 15.7116 4.2 15.559 4.2 15.3999C4.2 15.2408 4.26321 15.0882 4.37574 14.9756C4.48826 14.8631 4.64087 14.7999 4.8 14.7999Z" fill="white"/>
</svg>
