<svg width="396" height="151" viewBox="0 0 396 151" fill="none" xmlns="http://www.w3.org/2000/svg">
<g clip-path="url(#clip0_2_2)">
<path d="M202.31 81.07V107.62H188.82V30.59H219.27C234.76 30.59 244.77 40.71 244.77 55.77C244.77 70.83 234.65 81.06 219.27 81.06H202.3L202.31 81.07ZM202.31 42.61V69.06H216.43C225.7 69.06 230.66 64.11 230.66 55.68C230.66 47.25 225.6 42.61 216.65 42.61H202.32H202.31Z" fill="#CAF0FF"/>
<path d="M269.65 107.62H256.16V30.59H269.65V107.62Z" fill="#CAF0FF"/>
<path d="M300.21 95.19H332.46V107.62H286.73V30.59H300.22V95.19H300.21Z" fill="#CAF0FF"/>
<path d="M338.14 107.62V95.08L376.18 43.02H338.98V30.59H392.93V42.6L354.57 95.18H393.56V107.61H338.13L338.14 107.62Z" fill="#CAF0FF"/>
<path d="M202.31 81.07V107.62H188.82V30.59H219.27C234.76 30.59 244.77 40.71 244.77 55.77C244.77 70.83 234.65 81.06 219.27 81.06H202.3L202.31 81.07ZM202.31 42.61V69.06H216.43C225.7 69.06 230.66 64.11 230.66 55.68C230.66 47.25 225.6 42.61 216.65 42.61H202.32H202.31Z" fill="#CAF0FF"/>
<path d="M269.65 107.62H256.16V30.59H269.65V107.62Z" fill="#CAF0FF"/>
<path d="M300.21 95.19H332.46V107.62H286.73V30.59H300.22V95.19H300.21Z" fill="#CAF0FF"/>
<path d="M338.14 107.62V95.08L376.18 43.02H338.98V30.59H392.93V42.6L354.57 95.18H393.56V107.61H338.13L338.14 107.62Z" fill="#CAF0FF"/>
<path d="M188.74 128.89L192.59 118.41H193.89L197.78 128.89H196.68L195.66 126.11H190.83L189.81 128.89H188.74ZM191.15 125.19H195.32L193.36 119.89C193.32 119.74 193.24 119.57 193.23 119.47C193.22 119.56 193.16 119.75 193.1 119.89L191.15 125.19Z" fill="#CAF0FF"/>
<path d="M210.74 123.65C210.74 120.43 212.76 118.23 215.72 118.23C217.97 118.23 219.74 119.59 220.17 121.67H219.04C218.6 120.16 217.31 119.24 215.67 119.24C213.37 119.24 211.84 121 211.84 123.65C211.84 126.3 213.38 128.04 215.67 128.04C217.32 128.04 218.64 127.15 219.09 125.74H220.22C219.74 127.72 217.91 129.05 215.65 129.05C212.72 129.05 210.73 126.87 210.73 123.65H210.74Z" fill="#CAF0FF"/>
<path d="M233.95 123.65C233.95 120.43 235.97 118.23 238.93 118.23C241.18 118.23 242.95 119.59 243.38 121.67H242.25C241.81 120.16 240.52 119.24 238.88 119.24C236.58 119.24 235.05 121 235.05 123.65C235.05 126.3 236.59 128.04 238.88 128.04C240.53 128.04 241.85 127.15 242.3 125.74H243.43C242.95 127.72 241.12 129.05 238.86 129.05C235.93 129.05 233.94 126.87 233.94 123.65H233.95Z" fill="#CAF0FF"/>
<path d="M262.15 129.07C259.21 129.07 257.16 126.83 257.16 123.66C257.16 120.49 259.22 118.23 262.15 118.23C265.08 118.23 267.14 120.47 267.14 123.66C267.14 126.85 265.08 129.07 262.15 129.07ZM262.15 119.25C259.84 119.25 258.26 121.04 258.26 123.66C258.26 126.28 259.84 128.06 262.15 128.06C264.46 128.06 266.06 126.26 266.06 123.66C266.06 121.06 264.47 119.25 262.15 119.25Z" fill="#CAF0FF"/>
<path d="M281.53 118.41H282.58V125.2C282.58 127.04 283.59 128.04 285.42 128.04C287.25 128.04 288.21 127.02 288.21 125.2V118.41H289.26V125.24C289.26 127.61 287.8 129.06 285.41 129.06C283.02 129.06 281.52 127.63 281.52 125.24V118.41H281.53Z" fill="#CAF0FF"/>
<path d="M304.29 128.89V118.41H305.36L311.12 127.13V118.41H312.16V128.89H311.12L305.34 120.17V128.89H304.29Z" fill="#CAF0FF"/>
<path d="M326.17 118.41H333.68V119.38H330.45V128.89H329.4V119.38H326.18V118.41H326.17Z" fill="#CAF0FF"/>
<path d="M348.72 128.89H347.67V118.41H348.72V128.89Z" fill="#CAF0FF"/>
<path d="M363.81 128.89V118.41H364.88L370.65 127.13V118.41H371.69V128.89H370.65L364.87 120.17V128.89H363.82H363.81Z" fill="#CAF0FF"/>
<path d="M387.25 123.7C387.25 126.42 388.86 128.08 391.22 128.08C392.98 128.08 394.69 127.23 394.69 124.71V124.17H390.9V123.23H395.69V128.91H394.86L394.76 127.24C394.2 128.28 392.89 129.07 391.19 129.07C388.22 129.07 386.17 126.93 386.17 123.7C386.17 120.47 388.22 118.24 391.22 118.24C393.43 118.24 395.14 119.5 395.55 121.4H394.41C393.97 119.97 392.74 119.23 391.2 119.23C388.79 119.23 387.26 121.02 387.26 123.69L387.25 123.7Z" fill="#CAF0FF"/>
<path d="M188.74 128.89L192.59 118.41H193.89L197.78 128.89H196.68L195.66 126.11H190.83L189.81 128.89H188.74ZM191.15 125.19H195.32L193.36 119.89C193.32 119.74 193.24 119.57 193.23 119.47C193.22 119.56 193.16 119.75 193.1 119.89L191.15 125.19Z" fill="#CAF0FF"/>
<path d="M210.74 123.65C210.74 120.43 212.76 118.23 215.72 118.23C217.97 118.23 219.74 119.59 220.17 121.67H219.04C218.6 120.16 217.31 119.24 215.67 119.24C213.37 119.24 211.84 121 211.84 123.65C211.84 126.3 213.38 128.04 215.67 128.04C217.32 128.04 218.64 127.15 219.09 125.74H220.22C219.74 127.72 217.91 129.05 215.65 129.05C212.72 129.05 210.73 126.87 210.73 123.65H210.74Z" fill="#CAF0FF"/>
<path d="M233.95 123.65C233.95 120.43 235.97 118.23 238.93 118.23C241.18 118.23 242.95 119.59 243.38 121.67H242.25C241.81 120.16 240.52 119.24 238.88 119.24C236.58 119.24 235.05 121 235.05 123.65C235.05 126.3 236.59 128.04 238.88 128.04C240.53 128.04 241.85 127.15 242.3 125.74H243.43C242.95 127.72 241.12 129.05 238.86 129.05C235.93 129.05 233.94 126.87 233.94 123.65H233.95Z" fill="#CAF0FF"/>
<path d="M262.15 129.07C259.21 129.07 257.16 126.83 257.16 123.66C257.16 120.49 259.22 118.23 262.15 118.23C265.08 118.23 267.14 120.47 267.14 123.66C267.14 126.85 265.08 129.07 262.15 129.07ZM262.15 119.25C259.84 119.25 258.26 121.04 258.26 123.66C258.26 126.28 259.84 128.06 262.15 128.06C264.46 128.06 266.06 126.26 266.06 123.66C266.06 121.06 264.47 119.25 262.15 119.25Z" fill="#CAF0FF"/>
<path d="M281.53 118.41H282.58V125.2C282.58 127.04 283.59 128.04 285.42 128.04C287.25 128.04 288.21 127.02 288.21 125.2V118.41H289.26V125.24C289.26 127.61 287.8 129.06 285.41 129.06C283.02 129.06 281.52 127.63 281.52 125.24V118.41H281.53Z" fill="#CAF0FF"/>
<path d="M304.29 128.89V118.41H305.36L311.12 127.13V118.41H312.16V128.89H311.12L305.34 120.17V128.89H304.29Z" fill="#CAF0FF"/>
<path d="M326.17 118.41H333.68V119.38H330.45V128.89H329.4V119.38H326.18V118.41H326.17Z" fill="#CAF0FF"/>
<path d="M348.72 128.89H347.67V118.41H348.72V128.89Z" fill="#CAF0FF"/>
<path d="M363.81 128.89V118.41H364.88L370.65 127.13V118.41H371.69V128.89H370.65L364.87 120.17V128.89H363.82H363.81Z" fill="#CAF0FF"/>
<path d="M387.25 123.7C387.25 126.42 388.86 128.08 391.22 128.08C392.98 128.08 394.69 127.23 394.69 124.71V124.17H390.9V123.23H395.69V128.91H394.86L394.76 127.24C394.2 128.28 392.89 129.07 391.19 129.07C388.22 129.07 386.17 126.93 386.17 123.7C386.17 120.47 388.22 118.24 391.22 118.24C393.43 118.24 395.14 119.5 395.55 121.4H394.41C393.97 119.97 392.74 119.23 391.2 119.23C388.79 119.23 387.26 121.02 387.26 123.69L387.25 123.7Z" fill="#CAF0FF"/>
<path d="M44.37 22.43C44.37 34.54 34.55 44.36 22.44 44.36C10.33 44.36 0.5 34.55 0.5 22.43C0.5 10.31 10.32 0.5 22.43 0.5C34.54 0.5 44.36 10.32 44.36 22.43H44.37ZM23.66 104.72C11.04 104.72 0.8 114.95 0.8 127.58C0.8 140.21 11.03 150.44 23.66 150.44C36.29 150.44 46.52 140.21 46.52 127.58C46.52 114.95 36.29 104.72 23.66 104.72ZM109.98 52.61L0.5 53.04V96.09L67.69 95.66C91.05 95.66 109.99 76.73 109.99 53.36C109.99 53.11 109.99 52.86 109.99 52.61H109.98ZM109.99 43.23C109.99 19.86 91.05 0.93 67.69 0.93L50.37 0.5V43.55L109.98 43.98C109.98 43.73 109.98 43.48 109.98 43.23H109.99Z" fill="url(#paint0_linear_2_2)"/>
</g>
<defs>
<linearGradient id="paint0_linear_2_2" x1="0.5" y1="75.47" x2="109.99" y2="75.47" gradientUnits="userSpaceOnUse">
<stop stop-color="#488DB4"/>
<stop offset="0.51" stop-color="#85C4E5"/>
<stop offset="1" stop-color="#CCDDE4"/>
</linearGradient>
<clipPath id="clip0_2_2">
<rect width="395.17" height="149.93" fill="white" transform="translate(0.5 0.5)"/>
</clipPath>
</defs>
</svg>
