<svg width="313" height="154" viewBox="0 0 313 154" fill="none" xmlns="http://www.w3.org/2000/svg">
<path d="M313 138.088L293.912 132.023L273.355 41.0842L219.815 52.0863L202.616 41.4301L171.868 48.8983V58.8028L154.183 59.2909L148.481 55.8001L148.633 50.108L81.9756 42.6885L80.9041 52.1986L37.9696 42.074L18.5958 134.758L0 140.266L14.2881 154.003L14.8046 152.893L14.6436 153.661L69.6373 140.955L68.9837 150.872L137.301 141.541V137.612L179.379 137.14L179.546 141.118L255.873 150.721L254.124 141.394L298.356 151.686L313 138.088Z" fill="#161310"/>
<path d="M179.809 26.0942H143.974V44.092H179.809V26.0942Z" fill="#2B221A"/>
<path d="M73.1001 30.2046L25.7335 19.0356L0 142.14L60.671 128.123L59.9486 139.063L135.318 128.769V124.436L181.74 123.914L181.927 128.303L266.131 138.897L264.202 128.607L313 139.962L285.417 17.9426L213.447 35.5336L213.902 22.6588L172.857 23.8312L173.455 37.4903L153.943 38.0296L147.654 34.1787L147.82 27.8973L74.2813 19.7122L73.1001 30.2046Z" fill="#2B221A"/>
<path d="M178.08 46.9877H153.325C153.086 46.9877 152.856 46.8988 152.681 46.7368C152.434 46.6119 148.085 42.1826 147.739 42.5193H143.114C141.108 41.2986 142.2 63.4687 141.739 63.7447C141.363 64.998 146.774 69.7874 147.375 70.7244C148.544 71.989 150.168 72.706 151.873 72.706H161.698C162.243 72.706 162.693 73.1644 162.699 73.7304L163.004 97.5249C163.012 98.1361 162.558 98.6319 161.99 98.6319H151.201C150.691 98.6319 150.262 98.2265 150.195 97.6824L147.978 79.4272C147.893 78.7351 147.192 78.3344 146.584 78.6305L134.171 84.6783C133.812 84.8527 133.575 85.2286 133.56 85.6417L132.647 113.962C132.626 114.603 133.081 115.124 133.664 115.124H180.702C181.284 115.124 181.735 114.603 181.71 113.962L179.063 47.9324C179.043 47.4103 178.601 46.9892 178.076 46.9892L178.08 46.9877Z" fill="#2B221A"/>
<path d="M299.662 123.932L280.655 29.7816C280.432 28.6763 279.188 27.8563 278.096 28.0932C277.716 28.6062 230.803 37.5334 231.109 38.737L239.678 112.14C239.715 112.457 239.952 112.735 240.249 112.804L262.752 118.07C263.569 118.262 264.218 117.609 264.085 116.732C263.338 116.188 256.836 60.4735 254.923 60.9539C254.921 60.9539 249.773 61.4541 249.773 61.4541C249.132 61.5103 248.769 60.6248 249.319 60.3503L260.281 55.7777C260.635 55.6 261.12 55.8757 261.189 56.2954L261.987 61.2296L271.284 118.648C271.422 119.509 272.092 120.255 272.894 120.443L297.53 126.21C298.924 126.536 299.963 125.426 299.662 123.932Z" fill="#FFDA00"/>
<path d="M137.14 76.5576L138.175 36.1373C138.213 34.6515 137.068 33.4136 135.531 33.2699L104.087 30.3312C103.553 30.2814 103.052 30.6821 103.009 31.1966L97.9012 91.3952C97.6732 94.0783 100.191 95.8683 102.614 94.7316L117.517 87.7362L116.829 100.192C116.803 100.664 116.491 101.082 116.058 101.225L91.0392 110.021C89.6474 110.484 88.4452 109.254 88.8217 107.758C92.6671 92.4989 98.3141 37.7273 99.6661 30.3733C99.7536 29.8947 99.4187 29.4753 98.9182 29.4348L80.1118 27.9022C79.5843 27.8586 79.0774 28.2561 79.0136 28.7613L78.1989 34.3239L90.0667 36.7311C92.1936 36.9168 82.1174 115.176 82.7553 116.05C82.6963 116.601 82.2961 117.076 81.7971 117.187L67.6046 120.636C67.1566 124.354 65.2738 130.225 71.2779 129.98L126.862 121.233C127.403 121.173 127.834 120.678 127.856 120.087L129.277 82.2138C131.219 80.962 137.371 79.6242 137.137 76.5561L137.14 76.5576ZM126.552 66.0213C126.506 66.6965 125.994 67.3871 125.345 67.6507L112.738 72.7798C111.91 73.1168 111.231 72.6397 111.309 71.7791L113.528 47.6432C113.595 46.8886 113.852 45.911 115.032 46.0265L126.841 47.3657C127.495 47.4637 127.981 47.7009 127.935 48.3791L126.552 66.0213Z" fill="#FFDA00"/>
<path d="M78.5876 112.854C80.5549 94.8248 84.7126 58.0321 86.6721 40.1654C86.7198 39.7396 86.4378 39.3952 86.0121 39.2876C85.3298 39.1177 69.8491 35.4788 70.0548 36.7416C69.3914 37.2809 67.6268 40.2605 66.6048 39.9798L53.7898 37.7331C53.5457 37.6911 53.3449 37.5522 53.2382 37.3511L50.7494 32.7284C50.6458 32.5353 50.4528 32.4012 50.217 32.3559L34.368 29.3501C33.2633 29.1412 32.0293 29.9597 31.8059 31.051L23.6337 70.9039C23.377 72.1527 24.332 73.0945 25.6122 72.8511C45.498 68.1147 41.4627 74.6238 44.5748 56.9192C44.6976 56.1862 45.5904 55.7263 46.1754 56.0929L49.7849 58.3472C50.056 58.5172 50.19 58.8305 50.134 59.1688L48.8046 67.2573C48.7025 67.8745 49.1981 68.3392 49.8296 68.216C50.4291 67.7874 64.4682 66.1565 63.8738 64.727C64.0458 64.0269 63.9741 62.2091 64.883 61.9236L70.4614 59.5632C71.1452 59.2733 71.8198 59.7347 71.7289 60.4316C71.3111 60.9883 70.5091 76.306 68.9308 75.6841C67.8848 76.6709 18.7201 83.6385 20.3574 86.8298L12.3796 125.715C12.0735 127.205 13.1161 128.32 14.5287 128.006L77.6246 113.955C78.1251 113.842 78.5253 113.384 78.5842 112.852L78.5876 112.854ZM68.1464 89.781C67.7 90.5809 67.2694 103.014 65.6257 102.728L33.3876 108.86C32.2955 109.096 31.4601 108.253 31.6658 107.126L32.6923 101.491C32.844 100.663 33.5311 99.9524 34.3379 99.7904L67.0607 88.7536C67.7095 88.6242 68.2324 89.12 68.1464 89.781Z" fill="#FFDA00"/>
<path d="M256.45 122.357C256.406 121.785 255.984 121.269 255.455 121.144L236.632 116.727C236.14 116.612 235.746 116.15 235.687 115.617L235.118 110.499L204.394 104.805C203.348 104.638 202.559 103.893 202.529 103.068L202.078 90.7329C201.029 88.056 232.57 94.2267 233.259 93.7638L231.628 82.4448L231.36 80.0391L206.876 76.8167C201.658 76.3784 190.305 74.3423 190.022 74.5763C189.451 74.5357 188.989 74.9956 189.014 75.5773L190.959 118.64C190.985 119.209 191.391 119.694 191.914 119.775L256.682 129.908C257.513 130.739 256.225 122.154 256.45 122.357Z" fill="#FFDA00"/>
<path d="M85.6216 83.3059L90.0012 77.8493L84.0146 74.0715L85.6216 83.3059Z" fill="#2B221A"/>
<path d="M79.1729 86.1052L85.4721 78.8352L80.654 75.5393L79.1729 86.1052Z" fill="#FFDA00"/>
<path d="M120.934 74.3809L116.826 74.351L120.426 44.5215L122.432 44.618L120.934 74.3809Z" fill="#FFDA00"/>
<path d="M132.503 60.2229L110.252 57.7222L110.139 55.9512L132.337 57.6132L132.503 60.2229Z" fill="#FFDA00"/>
<path d="M225.98 39.5239L208.508 44.4412C207.627 44.6891 206.785 43.9454 206.949 43.0629L206.055 28.0522L183.747 29.0251L190.845 56.3415L193.447 67.5092C193.609 68.2061 194.349 68.613 195.043 68.3885L225.247 58.5849C226.109 58.3045 226.976 58.9998 226.865 59.8821L226.613 61.8778C226.565 62.2504 226.343 62.5809 226.012 62.7725L199.151 78.2232L211.917 86.7699L212.296 85.1345L230.466 74.7759C230.887 74.5358 231.125 74.0791 231.074 73.6049L227.554 40.5622C227.474 39.8138 226.72 39.3151 225.98 39.5239Z" fill="#FFDA00"/>
<path d="M181.785 48.6533C181.764 48.1312 181.322 47.7103 180.798 47.7103H156.043C155.804 47.7103 155.575 47.6212 155.399 47.4592C155.19 47.3546 149.891 43.669 148.204 42.4983C147.874 42.2691 147.633 41.9371 147.522 41.5565L144.488 31.2871L142.202 31.6612L145.038 43.1202C145.078 51.5144 144.373 63.3914 144.457 64.464C144.559 65.7656 149.492 70.5068 150.093 71.4438C151.262 72.7084 152.886 73.4254 154.591 73.4254H164.416C164.962 73.4254 165.41 73.8838 165.418 74.4498L165.722 98.2442C165.73 98.8555 165.276 99.3513 164.708 99.3513H153.92C153.409 99.3513 152.981 98.9458 152.913 98.4018L150.696 80.1466C150.611 79.4545 149.91 79.0538 149.302 79.3499L136.891 85.3974C136.532 85.5721 136.295 85.9479 136.28 86.3611L135.367 114.681C135.346 115.322 135.8 115.843 136.384 115.843H183.422C184.004 115.843 184.455 115.322 184.43 114.681L181.785 48.6533Z" fill="#FFDA00"/>
<path d="M147.096 36.0019L160.578 32.502L161.852 34.1545L187.78 28.0539L179.667 1.65261L165.57 3.94444L165.298 0L130.824 7.77197L136.981 24.4025L141.667 37.5642L147.096 36.0019Z" fill="#2B221A"/>
<path d="M135.39 9.56875L143.058 35.1546L162.828 28.0936L163.174 30.7315L184.332 26.4769L177.735 4.47215L165.801 7.04617L170.433 24.2474L162.211 3.00195L135.39 9.56875Z" fill="#FF3D4B"/>
<path d="M236.281 74.9553L232.104 77.4045L238.394 79.1352L236.281 74.9553Z" fill="#FFDA00"/>
</svg>
