<svg width="30" height="30" viewBox="0 0 30 30" fill="none" xmlns="http://www.w3.org/2000/svg">
<path d="M16.0775 0.0395582C13.9313 -0.116672 11.7766 0.191035 9.75992 0.941763C7.74324 1.69249 5.91185 2.86864 4.39024 4.39024C2.86864 5.91185 1.69249 7.74324 0.941763 9.75992C0.191035 11.7766 -0.116672 13.9313 0.0395582 16.0775C0.579656 24.0139 7.51092 30 15.4624 30H20.9984C21.8235 30 22.4986 29.3249 22.4986 28.4997C22.4986 27.6746 21.8235 26.9995 20.9984 26.9995H15.4924C9.89635 26.9995 4.76542 23.3688 3.37016 17.9528C1.13476 9.25123 9.23623 1.13476 17.9378 3.38517C23.3688 4.76542 26.9995 9.89635 26.9995 15.4924V17.1427C26.9995 18.3279 25.9343 19.4981 24.749 19.4981C23.5638 19.4981 22.4986 18.3279 22.4986 17.1427V15.2673C22.4986 11.5016 19.8282 8.11102 16.1075 7.58593C14.9237 7.40991 13.715 7.51922 12.582 7.90476C11.449 8.29031 10.4245 8.94093 9.5938 9.80246C8.76309 10.664 8.15021 11.7115 7.80618 12.8578C7.46215 14.0041 7.39692 15.2159 7.61593 16.3925C7.87906 17.8102 8.54554 19.122 9.53545 20.1704C10.5254 21.2189 11.7967 21.9595 13.1969 22.3036C15.9574 22.9487 18.5829 22.0636 20.3082 20.3082C21.6435 22.1386 24.314 23.0987 26.7594 22.1236C28.7698 21.3284 30 19.258 30 17.0977V15.4774C30 7.51091 24.0139 0.579656 16.0775 0.0395582ZM14.9973 19.4981C12.5068 19.4981 10.4965 17.4877 10.4965 14.9973C10.4965 12.5068 12.5068 10.4965 14.9973 10.4965C17.4877 10.4965 19.4981 12.5068 19.4981 14.9973C19.4981 17.4877 17.4877 19.4981 14.9973 19.4981Z" fill="white"/>
</svg>
