<svg width="23" height="21" viewBox="0 0 23 21" fill="none" xmlns="http://www.w3.org/2000/svg">
<path fill-rule="evenodd" clip-rule="evenodd" d="M7.49839 0.708435H15.74C19.5325 0.708435 22.608 3.4917 22.608 6.92385V14.3824C22.608 17.8145 19.5325 20.5978 15.74 20.5978H7.49839C3.70589 20.5978 0.630402 17.8145 0.630402 14.3824V6.92385C0.630402 3.4917 3.70589 0.708435 7.49839 0.708435ZM15.74 18.7332C18.391 18.7332 20.5476 16.7815 20.5476 14.3824V6.9239C20.5476 4.52476 18.391 2.57312 15.74 2.57312H7.49839C4.84735 2.57312 2.6908 4.52476 2.6908 6.9239V14.3824C2.6908 16.7815 4.84735 18.7332 7.49839 18.7332H15.74Z" fill="white"/>
<path fill-rule="evenodd" clip-rule="evenodd" d="M6.12479 10.6532C6.12479 7.9072 8.5849 5.68085 11.6192 5.68085C14.6535 5.68085 17.1136 7.9072 17.1136 10.6532C17.1136 13.3991 14.6535 15.6255 11.6192 15.6255C8.5849 15.6255 6.12479 13.3991 6.12479 10.6532ZM8.18518 10.6531C8.18518 12.3661 9.72636 13.7609 11.6192 13.7609C13.512 13.7609 15.0532 12.3661 15.0532 10.6531C15.0532 8.93892 13.512 7.54541 11.6192 7.54541C9.72636 7.54541 8.18518 8.93892 8.18518 10.6531Z" fill="white"/>
<ellipse cx="17.5257" cy="5.30789" rx="0.732132" ry="0.662567" fill="white"/>
</svg>
