<svg width="23" height="17" viewBox="0 0 23 17" fill="none" xmlns="http://www.w3.org/2000/svg">
<path d="M22.6712 2.4297C21.8539 2.75414 20.9831 2.9692 20.0751 3.07362C21.0092 2.56893 21.722 1.77584 22.0572 0.819913C21.1863 1.2898 20.2248 1.6217 19.2001 1.80692C18.3732 1.0101 17.1947 0.516602 15.909 0.516602C13.4145 0.516602 11.4063 2.3489 11.4063 4.59515C11.4063 4.91835 11.4365 5.22912 11.5107 5.52497C7.76492 5.35964 4.45042 3.73493 2.22382 1.25996C1.83509 1.87032 1.60708 2.56893 1.60708 3.32099C1.60708 4.73313 2.41063 5.98491 3.60841 6.70962C2.88452 6.69719 2.17437 6.507 1.57274 6.20742C1.57274 6.21985 1.57274 6.23601 1.57274 6.25217C1.57274 8.23364 3.13452 9.87948 5.18255 10.2586C4.8158 10.3494 4.41609 10.3929 4.00126 10.3929C3.7128 10.3929 3.4216 10.378 3.14825 10.3233C3.73203 11.938 5.38859 13.1252 7.35833 13.1637C5.8254 14.2489 3.87901 14.9028 1.77191 14.9028C1.40241 14.9028 1.04802 14.8878 0.693634 14.8468C2.68947 16.0116 5.05481 16.6766 7.60558 16.6766C15.8966 16.6766 20.4295 10.4612 20.4295 5.07373C20.4295 4.89348 20.4226 4.71945 20.413 4.54667C21.3072 3.97236 22.0586 3.25511 22.6712 2.4297Z" fill="white"/>
</svg>
